<?xml version="1.0" standalone="no"?>
<!DOCTYPE svg PUBLIC "-//W3C//DTD SVG 20010904//EN"
 "http://www.w3.org/TR/2001/REC-SVG-20010904/DTD/svg10.dtd">
<svg version="1.0" xmlns="http://www.w3.org/2000/svg"
 width="1080.000000pt" height="1080.000000pt" viewBox="0 0 1080.000000 1080.000000"
 preserveAspectRatio="xMidYMid meet">
<metadata>
Created by potrace 1.14, written by Peter Selinger 2001-2017
</metadata>
<g transform="translate(0.000000,1080.000000) scale(0.100000,-0.100000)"
fill="#000000" stroke="none">
<path d="M3575 10604 c-270 -278 -261 -268 -405 -434 -41 -47 -89 -101 -107
-120 -18 -19 -31 -41 -28 -48 3 -7 0 -10 -6 -6 -6 3 -16 -2 -24 -12 -7 -11
-49 -64 -94 -119 -45 -55 -97 -120 -117 -145 -19 -25 -56 -72 -82 -105 -57
-72 -92 -122 -92 -130 0 -6 -12 -22 -40 -54 -27 -29 -130 -182 -130 -192 0 -5
-4 -9 -9 -9 -6 0 -16 -11 -23 -24 -7 -13 -39 -62 -70 -110 -32 -47 -58 -90
-58 -95 0 -5 -3 -11 -8 -13 -12 -5 -162 -240 -162 -254 0 -3 -10 -20 -22 -37
-23 -30 -74 -118 -121 -207 -13 -25 -44 -81 -69 -125 -55 -99 -60 -108 -91
-170 -14 -27 -38 -75 -54 -105 -16 -30 -38 -75 -48 -100 -11 -25 -22 -47 -25
-50 -7 -6 -104 -219 -140 -305 -8 -19 -24 -58 -63 -145 -8 -19 -24 -56 -36
-82 -12 -26 -21 -50 -21 -54 0 -4 -8 -26 -19 -48 -10 -23 -28 -66 -39 -96 -61
-162 -115 -316 -128 -362 -8 -29 -22 -68 -31 -87 -8 -18 -16 -51 -17 -71 0
-21 -4 -36 -7 -34 -4 2 -11 -9 -16 -24 -22 -63 -47 -143 -80 -257 -19 -66 -36
-127 -39 -135 -2 -8 -9 -40 -15 -70 -6 -30 -15 -64 -20 -75 -9 -22 -36 -130
-44 -175 -3 -16 -12 -60 -20 -97 -9 -37 -24 -111 -35 -163 -10 -53 -22 -103
-24 -110 -3 -8 -10 -42 -15 -75 -5 -33 -16 -103 -26 -155 -9 -52 -14 -103 -11
-113 2 -9 1 -15 -3 -12 -21 12 -100 -715 -116 -1057 -7 -160 -13 -154 101
-113 38 13 87 29 109 34 22 5 65 16 95 25 52 15 183 46 280 65 109 23 96 4
104 148 3 71 13 313 21 538 8 226 19 500 24 610 5 110 7 214 4 232 -4 27 33
222 57 293 4 14 18 63 30 110 13 47 34 123 47 170 14 47 28 99 32 115 19 76 7
72 241 74 l210 2 9 -23 c4 -13 11 -144 15 -293 4 -148 11 -367 16 -485 11
-255 17 -421 30 -830 6 -168 15 -406 20 -530 5 -124 14 -382 20 -575 5 -192
13 -381 16 -420 l5 -70 117 -46 c94 -38 119 -44 125 -33 6 11 48 14 202 14
l195 0 0 158 c-1 129 -4 167 -20 212 -24 69 -25 129 -3 205 16 52 29 71 96
138 43 43 104 118 137 165 32 48 74 99 94 115 65 51 182 32 285 -47 22 -17 48
-26 70 -26 73 0 109 -12 150 -49 54 -49 80 -124 88 -257 l6 -102 31 9 c17 5
64 9 103 9 70 0 75 -2 113 -36 22 -20 42 -35 43 -33 2 2 8 24 14 49 7 25 21
78 32 118 17 60 19 82 11 120 -31 146 -39 283 -25 397 7 50 90 174 129 193
l28 14 -20 21 c-24 27 -36 63 -23 71 16 10 176 -41 173 -55 -2 -6 -24 -37 -51
-68 -70 -83 -121 -158 -137 -205 -17 -47 -13 -115 17 -290 21 -123 15 -199
-21 -294 -37 -95 -22 -314 26 -399 13 -23 24 -50 24 -61 0 -23 -37 -59 -48
-46 -35 39 -78 106 -135 207 -37 64 -79 136 -93 158 l-26 42 -57 -6 c-36 -3
-80 -16 -119 -36 -34 -17 -63 -31 -66 -31 -12 0 -20 50 -27 180 -8 160 -18
206 -53 247 -21 24 -32 28 -97 31 -60 4 -79 9 -103 29 -45 38 -125 74 -154 71
-21 -2 -41 -24 -99 -108 -46 -67 -92 -121 -128 -150 -63 -51 -72 -63 -96 -133
-16 -46 -16 -50 8 -115 26 -74 120 -269 180 -374 l38 -67 -88 -88 c-112 -113
-119 -124 -116 -176 3 -37 1 -42 -16 -39 -41 8 -146 48 -340 130 -395 167
-475 196 -640 233 -85 19 -363 41 -395 32 -63 -19 -90 -55 -143 -188 -64 -161
-82 -272 -82 -495 1 -170 3 -206 23 -280 33 -124 72 -221 99 -248 21 -21 30
-23 81 -18 31 3 147 9 257 12 161 5 225 3 327 -11 138 -19 158 -29 135 -67
-22 -34 -54 -162 -62 -243 -9 -90 7 -208 40 -310 30 -92 108 -232 163 -291 57
-62 147 -166 150 -173 1 -4 -25 -40 -59 -81 -178 -218 -303 -399 -411 -598
-22 -40 -57 -103 -79 -140 -21 -37 -39 -70 -39 -74 0 -5 11 -8 24 -8 21 0 35
18 92 118 37 64 84 143 105 175 104 153 128 188 182 262 33 44 98 128 144 187
72 90 88 106 103 98 25 -13 213 -213 229 -243 12 -22 8 -33 -40 -123 -29 -55
-95 -182 -145 -284 l-93 -185 32 -3 c20 -2 33 1 36 10 2 7 38 81 80 163 l76
150 50 6 c28 4 83 9 124 12 72 6 73 6 103 -26 16 -18 77 -96 135 -174 l106
-143 619 0 620 0 -18 28 c-15 22 -19 47 -20 132 -1 100 -3 109 -38 183 -43 91
-122 229 -213 375 -60 95 -74 132 -40 103 28 -23 329 -82 462 -91 158 -10 248
-36 295 -83 35 -35 149 -190 309 -419 56 -81 107 -150 112 -153 16 -10 10 -45
-8 -51 -10 -3 -27 -9 -38 -14 -11 -4 317 -9 728 -9 713 -1 747 -1 739 16 -13
25 -82 263 -82 283 0 11 23 24 78 42 42 15 109 38 147 53 112 43 145 51 154
37 4 -6 38 -106 76 -222 41 -122 75 -210 83 -210 16 0 17 -5 -19 107 -196 615
-517 1312 -861 1875 -40 64 -68 122 -71 145 -2 21 -12 63 -21 93 -8 30 -30
123 -48 205 -31 148 -32 154 -32 430 -1 233 3 311 22 465 33 263 27 247 97
290 75 46 80 63 24 81 -39 13 -42 17 -45 54 -3 41 19 180 38 247 10 32 8 41
-7 58 -23 26 -32 25 -144 -10 -52 -16 -97 -27 -100 -24 -3 3 -13 24 -21 47
-11 30 -21 42 -35 42 -16 0 -25 -15 -43 -73 -20 -63 -29 -76 -63 -97 -37 -24
-59 -31 -59 -20 0 9 71 137 101 183 16 24 29 45 29 48 0 2 27 45 59 94 72 107
131 208 131 220 0 5 -9 18 -21 28 l-20 20 111 126 c62 69 115 126 119 126 3 0
20 13 37 29 17 17 87 75 155 130 303 244 375 304 484 405 64 59 119 104 124
102 4 -3 14 -40 21 -83 15 -99 46 -179 120 -321 82 -156 195 -314 312 -435 54
-56 98 -103 98 -104 0 -6 -56 -53 -63 -53 -17 0 -188 -122 -287 -206 -58 -49
-128 -104 -156 -124 -226 -156 -582 -483 -713 -655 -81 -106 -125 -185 -176
-313 -39 -100 -42 -133 -4 -58 12 25 26 46 31 46 8 0 10 -8 28 -95 23 -108 91
-277 159 -393 32 -55 182 -252 192 -252 18 0 8 22 -40 83 -81 104 -106 146
-93 159 17 17 114 22 156 8 42 -13 324 -299 350 -355 36 -75 29 -247 -11 -262
-15 -6 -71 34 -123 88 -99 101 -261 251 -250 230 20 -39 286 -297 359 -348 97
-69 191 -154 191 -173 0 -21 -142 -192 -210 -253 -34 -30 -50 -53 -50 -69 0
-46 149 -288 241 -391 l34 -37 125 40 c69 23 193 58 275 80 126 33 153 44 172
67 l22 27 33 -29 c18 -17 36 -34 40 -40 4 -5 8 11 8 36 0 42 -4 50 -35 73 -27
21 -35 35 -36 59 -1 48 -8 59 -94 154 -86 95 -388 393 -410 406 -9 5 -27 -4
-50 -24 l-36 -32 -62 59 c-34 32 -66 61 -70 64 -5 4 -3 35 4 69 16 75 4 143
-41 239 -25 55 -55 90 -174 208 -163 160 -197 181 -288 171 -29 -3 -65 -9 -79
-12 -23 -6 -29 -1 -63 55 -42 71 -98 203 -114 271 -7 26 -15 78 -18 117 l-7
72 53 79 c28 44 59 86 66 92 12 10 36 -9 137 -109 161 -160 336 -300 602 -480
74 -50 590 -309 702 -353 l23 -8 -21 -53 c-60 -150 -89 -267 -89 -359 0 -108
57 -167 122 -126 13 8 50 18 83 22 80 9 205 49 286 91 117 61 197 165 199 256
1 70 183 520 241 596 84 109 122 165 151 223 31 60 33 70 33 164 -1 89 -4 106
-28 153 -33 62 -120 152 -198 204 -132 88 -372 185 -658 268 -177 51 -720 248
-744 270 -5 4 11 23 34 41 79 63 314 228 360 253 l46 26 59 -21 c32 -12 88
-24 124 -26 77 -6 124 13 225 92 33 25 103 72 155 102 144 84 245 160 296 222
l46 56 -5 75 c-3 41 -13 102 -22 135 -19 67 -116 309 -144 358 -78 140 -77
138 -56 149 40 21 126 124 158 187 17 36 41 70 53 76 59 29 139 123 121 141
-3 4 -35 -19 -70 -50 -62 -54 -106 -73 -93 -41 8 23 -8 18 -34 -10 -19 -21
-21 -25 -7 -25 9 0 17 -3 17 -6 0 -18 -86 -146 -123 -182 -43 -42 -165 -102
-209 -102 -12 0 -74 -55 -164 -145 -78 -80 -147 -145 -153 -145 -24 0 -190
290 -227 396 l-18 51 45 59 c78 102 104 146 158 269 29 66 88 185 131 265 104
195 150 288 195 395 70 170 144 396 145 443 0 54 55 31 90 -38 35 -70 35 -109
-5 -252 -84 -305 -139 -433 -232 -541 -81 -94 -82 -119 -2 -39 40 39 78 72 84
72 7 0 25 -4 41 -10 57 -19 154 -38 154 -30 0 11 -99 48 -151 56 -29 5 -39 11
-37 23 3 14 17 16 98 13 52 -2 103 -6 113 -8 9 -3 17 -1 17 4 0 10 -111 32
-164 32 -22 0 -36 5 -36 12 0 16 80 230 91 241 4 5 21 -20 39 -55 115 -227
311 -442 450 -494 25 -10 48 -22 52 -28 9 -14 -44 -33 -130 -46 -56 -9 -67 -9
-83 6 -11 9 -19 24 -19 33 0 36 -22 88 -50 119 -16 19 -34 50 -41 70 -16 49
-50 100 -70 105 -12 3 -7 -11 19 -55 39 -66 35 -88 -14 -64 -16 8 -40 17 -54
20 -14 3 5 -9 41 -27 83 -40 91 -64 47 -134 -16 -25 -27 -47 -25 -50 3 -2 22
23 43 57 32 52 39 59 51 47 8 -8 19 -44 26 -80 l11 -66 -33 -41 c-18 -23 -31
-44 -28 -46 5 -6 67 66 67 78 0 19 28 6 34 -15 6 -24 6 -24 74 -11 91 17 148
41 172 71 l20 26 -38 19 c-177 95 -442 416 -517 627 -15 42 -14 47 16 140 34
106 34 138 -3 223 -11 27 -18 51 -16 54 3 2 16 0 30 -5 23 -8 86 -14 131 -12
23 1 57 37 57 60 0 14 -22 32 -76 62 -90 49 -165 118 -317 288 -206 231 -329
393 -408 536 -67 121 -233 372 -305 461 -148 183 -357 357 -630 526 -137 85
-251 139 -444 211 -259 97 -409 137 -567 153 -74 7 -89 18 -58 44 8 7 15 19
15 27 0 9 -17 0 -46 -25 -43 -39 -301 -178 -311 -168 -3 2 15 29 39 58 84 103
123 228 101 322 -8 35 -7 46 2 46 33 0 109 -36 149 -72 52 -45 61 -39 16 10
-34 37 -96 68 -157 78 l-41 6 9 -38 c13 -60 10 -135 -10 -182 -36 -90 -114
-155 -94 -79 18 71 0 286 -26 301 -4 3 -5 -32 -3 -78 3 -63 -1 -102 -17 -166
-33 -125 -66 -186 -145 -268 -77 -80 -78 -79 54 -16 36 18 99 42 140 54 41 12
111 38 154 57 77 35 82 36 170 30 235 -14 622 -126 862 -248 311 -158 672
-437 822 -634 41 -54 242 -362 242 -371 0 -16 169 -281 235 -369 175 -232 338
-388 523 -499 64 -39 74 -52 46 -63 -37 -14 -333 68 -394 109 -19 13 -47 46
-64 74 -36 60 -147 203 -159 204 -4 0 21 -39 56 -87 106 -148 225 -357 251
-441 7 -19 -24 -117 -64 -207 -5 -11 -27 -65 -50 -119 -79 -188 -260 -564
-276 -570 -11 -4 -78 26 -98 45 -5 5 0 36 12 76 34 108 37 150 13 211 -12 29
-21 55 -21 57 0 3 24 17 52 31 119 60 240 180 268 267 15 47 2 67 -44 66 l-31
-1 33 -9 c28 -8 32 -13 26 -32 -9 -32 -80 -122 -131 -167 -58 -51 -172 -106
-263 -126 -109 -25 -505 -25 -645 -1 -141 25 -233 51 -349 101 -173 75 -191
86 -194 127 -2 29 -10 40 -44 62 -23 15 -55 31 -72 36 -17 5 -58 17 -91 27
-75 22 -108 44 -215 141 -124 113 -284 302 -372 439 l-46 71 -5 229 c-6 241
-21 352 -65 459 -25 59 -28 42 -7 -35 33 -122 48 -297 42 -485 -8 -227 -27
-345 -91 -565 -24 -82 -99 -255 -123 -283 -12 -16 -23 -33 -23 -39 0 -5 -15
-28 -33 -51 -18 -23 -37 -52 -43 -64 -5 -13 -34 -52 -64 -88 -50 -59 -81 -78
-94 -57 -8 13 32 87 56 106 24 17 24 20 20 164 -2 81 -8 153 -12 162 -7 10 -9
3 -10 -26 0 -46 -40 -166 -68 -204 -11 -14 -27 -41 -37 -60 -9 -19 -32 -53
-50 -75 -41 -51 -87 -156 -74 -170 5 -5 9 -23 9 -40 1 -16 7 -41 15 -55 22
-39 18 -59 -17 -80 -20 -12 -26 -20 -17 -20 9 0 27 9 40 19 23 18 23 21 10 67
-32 110 -30 115 44 186 37 34 71 64 76 66 5 2 6 -10 3 -27 -6 -30 -5 -31 28
-31 27 0 42 9 79 48 25 26 62 70 82 97 l35 50 119 27 c209 47 335 62 518 62
194 -1 289 -17 354 -60 37 -24 41 -31 41 -68 -1 -55 -34 -206 -60 -262 -25
-58 -25 -62 2 -38 34 30 104 145 133 216 l26 66 105 -48 c58 -27 114 -50 125
-53 22 -6 23 -24 8 -117 -20 -130 -132 -311 -215 -351 -64 -31 -23 -109 57
-109 60 0 117 31 188 102 33 34 63 59 65 57 9 -8 -64 -309 -103 -428 -93 -283
-241 -502 -411 -608 -45 -28 -32 -29 23 -2 133 67 276 236 347 408 68 168 92
238 114 326 33 135 70 344 62 352 -4 4 -32 -19 -64 -50 -63 -62 -177 -127
-223 -127 -28 0 -69 30 -69 50 0 5 20 19 45 31 106 50 202 212 212 359 3 36 6
70 8 76 2 8 33 4 97 -12 150 -37 403 -66 555 -63 73 2 135 1 137 -2 5 -5 29
-193 40 -315 5 -58 4 -62 -25 -90 -67 -63 -439 -494 -449 -519 -5 -14 -10 -45
-10 -67 0 -47 0 -47 -220 -243 -74 -66 -154 -139 -179 -162 -49 -47 -43 -45
-154 -68 -53 -12 -107 -16 -167 -13 -49 2 -87 1 -84 -3 7 -12 174 -32 215 -25
48 8 51 -5 7 -42 -67 -57 -57 -58 -180 2 -236 114 -453 167 -597 146 -72 -10
-253 -66 -378 -115 -34 -14 -75 -25 -92 -25 -16 0 -34 -6 -38 -13 -4 -7 -39
-26 -78 -42 -120 -50 -210 -95 -189 -95 11 0 24 4 30 9 5 5 36 18 69 30 643
235 690 248 821 230 43 -6 117 -24 166 -40 109 -37 360 -137 371 -148 5 -5
-13 -21 -40 -37 -62 -35 -150 -120 -221 -213 -116 -154 -260 -274 -453 -378
-109 -60 -285 -130 -353 -142 -88 -15 -165 -45 -301 -115 -118 -61 -150 -82
-294 -191 -51 -38 -114 -85 -139 -103 -26 -17 -55 -38 -64 -46 -9 -8 -85 -61
-170 -117 -84 -57 -179 -129 -210 -160 l-57 -57 -12 57 c-15 75 -15 164 1 231
14 62 68 181 114 255 18 28 44 73 59 100 l28 50 -31 -35 c-18 -19 -50 -61 -72
-93 -22 -33 -43 -55 -47 -50 -8 9 -36 156 -52 267 -11 85 -3 116 49 192 146
217 379 431 574 531 76 39 85 51 18 28 -87 -31 -229 -127 -357 -242 l-82 -74
-68 27 c-212 84 -378 206 -452 332 -22 37 -54 110 -71 162 -28 82 -32 107 -30
185 5 211 3 239 -18 294 -12 30 -20 57 -17 59 2 3 16 -3 30 -12 31 -20 31 -16
3 34 -13 21 -20 41 -18 43 3 3 55 3 116 0 l111 -6 23 -49 c34 -71 96 -138 128
-139 15 0 21 -3 15 -6 -24 -9 -13 -22 24 -29 53 -10 112 24 155 88 79 121 81
125 86 223 5 95 -7 193 -34 274 -21 60 -62 144 -77 154 -7 4 -75 7 -152 6 -79
-1 -139 2 -138 7 6 25 250 32 333 10 30 -9 55 -14 56 -13 2 1 -11 13 -27 27
-17 14 -43 37 -59 52 -17 17 -48 32 -80 39 -54 11 -200 8 -232 -6 -24 -9 -33
17 -47 131 -12 101 -16 404 -5 482 5 41 10 52 25 52 27 0 46 -24 53 -72 10
-63 51 -172 99 -261 47 -89 161 -218 250 -283 122 -90 310 -138 447 -113 l75
13 -110 7 c-167 9 -272 46 -402 142 -178 132 -302 335 -335 547 -13 84 -25
309 -17 321 3 6 22 -14 41 -44 106 -160 302 -285 472 -302 l51 -5 -55 14 c-88
21 -159 54 -247 112 -152 101 -249 241 -311 449 -25 84 -27 103 -27 280 0 165
3 203 23 285 41 165 107 344 154 412 10 14 18 30 18 34 0 17 -53 -70 -82 -135
-95 -208 -139 -401 -139 -618 -1 -134 13 -222 54 -340 29 -84 31 -95 19 -125
-14 -34 -16 -40 -53 -173 -28 -103 -30 -115 -35 -400 -4 -177 -2 -264 9 -332
14 -95 13 -106 -13 -116 -9 -3 -3 -6 13 -6 24 -1 28 -5 25 -25 -1 -13 4 -31
12 -41 13 -15 12 -19 -6 -34 -35 -28 -44 -56 -44 -134 0 -80 22 -246 39 -289
7 -20 7 -29 -1 -34 -16 -10 -155 -6 -199 6 -33 9 -38 16 -59 73 -12 34 -26 66
-31 72 -44 46 71 229 179 284 50 26 64 44 22 30 -16 -6 -30 -15 -30 -20 0 -4
-7 -6 -15 -3 -8 4 -15 1 -15 -5 0 -7 -16 -10 -42 -8 -53 5 -95 -7 -127 -34
-18 -15 -21 -23 -13 -28 9 -5 0 -31 -32 -94 -30 -60 -46 -105 -51 -147 -4 -33
-10 -60 -14 -60 -4 0 -27 10 -52 23 -170 87 -318 224 -402 373 -136 242 -179
436 -142 653 9 56 15 104 12 107 -8 8 -46 -175 -57 -271 -14 -131 -12 -322 5
-411 30 -158 125 -294 205 -294 17 0 11 7 -26 33 -37 24 -57 47 -82 97 l-33
65 17 43 c9 23 20 42 24 42 3 0 14 -18 24 -41 28 -62 109 -178 168 -241 91
-96 294 -220 409 -249 28 -7 54 -20 57 -29 3 -8 8 -17 12 -20 9 -7 37 -100 51
-169 12 -54 11 -61 -7 -86 -10 -15 -23 -35 -29 -44 -5 -9 -13 -18 -16 -21 -4
-3 -16 -23 -27 -45 -36 -73 -56 -156 -56 -245 0 -75 3 -91 27 -132 33 -54 66
-79 96 -71 l22 6 -22 11 c-71 36 -97 163 -65 316 16 76 74 203 90 197 6 -3 9
-11 7 -18 -3 -8 -6 -54 -8 -104 -4 -93 7 -151 55 -290 23 -66 55 -225 47 -233
-3 -3 -13 2 -23 11 -17 16 -23 16 -78 0 -39 -11 -99 -17 -179 -17 -114 -1
-123 1 -178 29 -74 37 -157 125 -196 208 -54 113 -62 362 -16 512 8 28 15 53
15 56 0 3 -51 9 -112 12 -178 9 -302 51 -377 126 -38 38 -41 45 -41 97 0 39 7
66 22 94 l23 39 -31 33 c-147 154 -234 417 -234 703 1 230 34 474 85 608 70
190 88 234 129 315 59 119 101 195 148 265 21 32 38 65 38 73 0 7 -28 28 -62
45 -118 59 -208 146 -285 274 -55 93 -53 86 -60 190 -4 77 -4 81 24 111 27 28
35 31 118 38 125 9 327 71 618 188 122 48 257 119 251 130 -3 4 -87 6 -187 3
-100 -3 -229 -2 -287 2 -95 7 -105 10 -102 27 2 10 10 25 18 33 8 8 14 19 14
24 0 5 139 9 344 9 319 0 345 1 367 18 169 131 488 314 687 393 251 101 587
179 770 179 47 0 72 4 72 11 0 15 -39 79 -48 79 -4 0 -370 1 -814 3 -521 1
-811 6 -817 12 -7 7 2 26 27 58 l36 47 733 0 c403 0 733 4 733 8 0 37 -171
134 -324 183 -156 51 -196 81 -196 147 0 48 27 86 78 109 29 14 66 17 172 17
157 0 258 -18 430 -74 212 -70 315 -127 425 -239 58 -60 60 -61 115 -61 79 0
157 -22 214 -58 l50 -32 676 0 676 0 51 26 c65 32 127 93 161 159 23 43 27 62
27 135 0 109 -25 169 -101 240 -67 64 -145 100 -238 111 -39 4 -623 8 -1298 9
-674 0 -1233 3 -1242 6 -11 4 -16 19 -16 50 l0 44 1388 -2 1388 -3 80 -39
c214 -106 315 -336 240 -548 -43 -123 -124 -210 -252 -270 l-69 -33 -698 -3
c-628 -2 -698 -4 -693 -18 3 -9 6 -35 6 -59 0 -43 0 -43 43 -49 254 -38 655
-183 912 -332 275 -158 540 -375 713 -584 67 -82 186 -260 322 -485 116 -192
211 -316 402 -524 150 -164 192 -201 285 -255 96 -55 113 -77 113 -147 0 -82
-64 -159 -131 -159 -40 0 -46 -12 -53 -100 -3 -47 -9 -111 -12 -143 -6 -52 -3
-64 27 -123 42 -81 185 -273 248 -333 71 -67 122 -106 171 -132 77 -40 90 -56
90 -111 0 -44 -4 -54 -45 -97 -25 -26 -45 -50 -45 -52 0 -2 30 -4 68 -4 80 -1
124 -25 166 -92 100 -157 -33 -353 -212 -313 -66 15 -104 47 -136 114 -25 53
-27 82 -11 153 7 31 60 95 100 121 l20 13 -20 -7 c-11 -3 -43 -13 -72 -20 -44
-12 -65 -28 -143 -105 -50 -51 -98 -105 -106 -121 -8 -16 -39 -58 -69 -93 -30
-35 -55 -69 -55 -75 0 -6 13 -37 29 -68 38 -74 68 -143 96 -217 13 -33 29 -61
37 -63 8 -1 35 13 60 32 50 38 179 109 216 118 21 6 22 12 22 87 l0 81 235 0
235 0 0 75 c0 82 17 161 49 223 12 23 21 47 21 53 0 7 -17 35 -39 64 -71 94
-124 217 -136 319 -7 54 -8 56 -60 85 -76 43 -139 112 -182 197 -30 62 -37 88
-41 155 -3 46 1 105 8 138 24 110 100 219 195 279 22 13 41 26 43 27 2 2 -4
31 -13 66 -19 71 -17 267 2 291 6 7 13 26 17 41 10 41 80 140 131 184 71 63
208 123 279 123 19 0 40 8 49 18 20 21 22 42 6 42 -10 0 -9 41 2 120 1 8 1 63
1 121 -2 80 -5 108 -16 112 -7 3 -80 0 -162 -6 -82 -5 -176 -11 -209 -11 -33
-1 -63 -5 -67 -11 -4 -5 -8 -71 -8 -146 0 -168 -10 -323 -21 -312 -10 10 -29
258 -29 376 l0 87 -27 0 c-40 0 -297 18 -366 26 -37 4 -57 10 -54 18 4 12 230
34 368 35 l76 1 6 192 c6 194 20 261 31 151 3 -32 8 -122 12 -200 3 -79 7
-143 8 -143 0 0 102 -7 225 -15 124 -8 226 -13 229 -11 7 7 20 340 27 681 4
182 11 337 18 358 8 31 8 40 -3 47 -9 6 -11 21 -6 56 7 54 15 260 24 671 l7
282 30 32 c46 48 123 95 199 118 79 24 263 30 284 9 9 -9 12 -9 12 0 0 7 7 12
15 12 12 0 15 -19 15 -111 0 -96 -3 -116 -21 -146 -17 -27 -20 -45 -17 -89 3
-30 0 -57 -5 -61 -5 -3 -3 -9 4 -14 11 -8 9 -14 -11 -30 -14 -11 -46 -40 -71
-63 -25 -23 -54 -49 -66 -57 -45 -32 -136 -116 -165 -154 -24 -31 -26 -35 -7
-19 142 122 181 154 221 182 74 51 274 147 371 178 73 23 87 31 86 49 0 11 -3
14 -6 8 -15 -38 -23 1 -23 112 0 104 2 125 15 125 8 0 15 2 15 5 0 10 -55 54
-67 55 -6 0 -14 4 -18 9 -3 6 7 6 27 0 60 -17 58 -21 58 136 l0 145 -3517 0
-3518 -1 -190 -195z m2219 -3175 c86 -130 283 -351 364 -406 12 -8 22 -19 22
-24 0 -5 -73 -9 -163 -9 -158 0 -368 -20 -434 -41 -47 -15 -56 -4 -33 41 11
21 42 106 69 187 43 127 58 183 87 321 8 39 27 23 88 -69z m-1784 -265 c0 -86
-2 -95 -17 -92 -14 3 -17 13 -16 43 3 47 22 145 29 145 2 0 4 -43 4 -96z
m4383 47 c11 -11 -13 -71 -28 -71 -11 0 -21 18 -52 98 -4 10 4 10 33 -3 22 -9
42 -19 47 -24z m-2313 -270 l55 -19 -45 -5 c-25 -4 -108 -9 -185 -12 -77 -4
-192 -12 -255 -20 -172 -20 -174 6 -3 40 205 40 345 46 433 16z m175 -11 c7
-12 -2 -12 -30 0 -19 8 -19 9 2 9 12 1 25 -3 28 -9z m1584 -419 c32 -75 27
-119 -29 -261 -24 -63 -42 -80 -82 -80 -26 0 -28 2 -28 44 0 25 -7 98 -16 163
-24 172 -27 156 36 170 93 19 95 18 119 -36z m-4896 -87 c25 -73 26 -134 2
-154 -11 -9 -16 0 -24 42 -9 46 -15 131 -12 177 2 24 10 8 34 -65z m1147 -133
c0 -10 -34 -21 -67 -21 -25 0 -31 15 -10 23 21 9 77 7 77 -2z m3785 -133 c25
-12 45 -26 45 -30 0 -6 -90 34 -109 49 -15 11 26 -1 64 -19z m-3811 -153 c26
-21 56 -91 56 -129 0 -12 9 -39 20 -61 11 -21 16 -43 12 -47 -4 -4 -33 -13
-65 -19 -62 -13 -87 -4 -87 32 0 10 -10 37 -21 60 -20 37 -21 51 -16 159 3 65
9 124 13 131 5 9 17 -7 36 -46 15 -33 39 -69 52 -80z m3791 43 c30 -13 31 -29
6 -83 -18 -39 -125 -165 -141 -165 -4 0 -10 27 -14 60 -10 85 16 168 59 186
38 17 57 17 90 2z m-3531 -38 c17 0 36 -43 36 -81 0 -27 -3 -30 -27 -27 -23 3
-29 10 -40 53 -16 64 -16 68 3 61 9 -3 21 -6 28 -6z m6 -141 c0 -5 -7 -9 -15
-9 -15 0 -20 12 -9 23 8 8 24 -1 24 -14z m54 -72 c9 -48 4 -71 -42 -167 -22
-46 -88 -80 -157 -80 -45 0 -55 4 -81 33 -41 44 -66 85 -62 104 3 14 83 41
192 63 21 4 44 16 49 26 15 27 70 75 82 71 5 -2 14 -24 19 -50z m-764 -14 c0
-16 -26 -17 -35 -2 -4 5 -4 22 0 37 l7 27 13 -25 c8 -14 14 -31 15 -37z m4796
-330 c81 -130 98 -164 134 -273 41 -124 47 -170 25 -207 -22 -37 -74 -73 -106
-73 -29 0 -182 88 -281 162 -63 47 -178 162 -178 179 0 9 127 146 224 241 97
96 105 94 182 -29z m-4481 -671 c74 -72 124 -111 199 -152 24 -14 28 -22 30
-63 2 -55 0 -55 -79 -25 -66 25 -141 101 -184 187 -24 47 -54 131 -47 131 1 0
37 -35 81 -78z m1635 -677 c-5 -22 -10 -59 -10 -82 0 -23 -4 -44 -9 -47 -12
-8 -133 124 -128 138 2 6 24 14 48 18 24 3 55 11 69 16 34 13 41 4 30 -43z
m-103 -85 l79 -85 12 -161 c9 -124 21 -194 51 -314 35 -136 72 -252 101 -315
5 -11 20 -47 34 -80 38 -94 139 -300 200 -410 32 -58 60 -122 67 -155 6 -30
18 -90 28 -133 10 -43 15 -80 11 -82 -4 -2 -31 21 -61 51 -30 31 -76 74 -104
97 -40 32 -33 23 31 -44 131 -137 200 -211 241 -260 21 -25 79 -93 128 -150
265 -308 300 -378 300 -584 -1 -121 -23 -235 -46 -235 -9 0 -99 38 -107 45
-10 9 -34 124 -43 210 -13 133 -31 198 -66 242 -75 96 -113 147 -113 156 0 6
17 7 42 3 23 -4 40 -4 36 -1 -17 18 -127 37 -238 42 -134 6 -246 -7 -477 -53
-161 -32 -530 -155 -598 -198 -11 -8 -54 -26 -95 -41 -59 -21 -94 -28 -162
-29 -130 -2 -138 11 -94 158 28 95 96 417 96 456 0 13 20 84 46 158 l45 135
-19 210 c-18 190 -18 214 -5 254 9 25 23 47 32 50 104 34 323 208 335 265 3
13 7 83 10 156 4 113 8 140 27 175 70 131 89 178 100 240 11 62 15 70 41 79
37 13 42 38 33 150 -6 76 -4 89 8 86 8 -1 50 -41 94 -88z m603 -19 c29 -80 36
-91 61 -96 15 -4 46 -19 68 -35 42 -31 97 -113 87 -129 -8 -13 -83 13 -111 38
-100 92 -242 54 -312 -82 -13 -27 -22 -52 -19 -55 4 -3 29 -5 56 -3 l50 2 0
-36 c0 -87 97 -100 139 -18 23 45 12 78 -41 116 -11 9 -15 21 -11 45 5 27 9
32 34 32 17 0 42 -12 63 -31 33 -28 69 -42 184 -72 23 -6 42 -14 42 -18 0 -4
-44 -31 -97 -59 -54 -29 -115 -70 -136 -92 -45 -45 -73 -58 -127 -58 -45 0
-91 33 -110 80 -8 20 -19 30 -29 28 -40 -9 8 -112 67 -142 22 -11 78 -24 115
-26 4 0 7 -37 5 -82 l-3 -83 -30 0 c-28 0 -30 3 -35 44 -5 42 -7 45 -49 59
-64 21 -126 87 -146 156 -15 53 -18 55 -53 58 -35 3 -37 5 -37 38 0 32 3 35
34 40 37 5 36 4 79 100 26 58 58 98 128 157 12 10 34 54 49 98 29 83 43 115
50 115 2 0 18 -40 35 -89z m1348 50 c65 -22 189 -65 277 -96 265 -94 322 -114
387 -130 101 -26 415 -144 520 -195 116 -58 207 -121 275 -192 43 -47 51 -62
62 -118 20 -109 -8 -194 -125 -372 -68 -102 -189 -255 -233 -294 -33 -29 -13
-31 23 -3 37 29 43 17 19 -39 -36 -82 -45 -106 -60 -152 -23 -72 -73 -271 -73
-290 0 -64 -314 -245 -473 -272 -96 -17 -102 -9 -101 125 2 112 30 226 94 382
30 72 152 289 220 390 15 22 39 63 55 90 51 93 116 176 148 190 18 7 61 18 97
25 64 12 170 56 170 71 0 4 -19 -1 -42 -11 -46 -20 -180 -50 -223 -50 -67 0
-107 -43 -183 -196 -27 -55 -79 -150 -114 -210 -36 -60 -77 -130 -92 -157 -38
-66 -65 -82 -113 -67 -175 56 -510 211 -612 282 -25 18 -58 39 -72 47 -98 50
-436 326 -587 479 -99 101 -111 117 -99 131 7 9 40 48 73 86 114 134 451 442
580 531 43 30 80 54 82 54 2 0 56 -18 120 -39z m-4093 -30 c51 -29 92 -67 83
-76 -3 -3 -19 0 -36 6 -22 7 -36 7 -49 0 -16 -9 -15 -10 9 -11 38 0 74 -48 83
-110 4 -27 18 -67 32 -87 17 -25 27 -56 31 -95 4 -52 2 -62 -18 -83 -13 -14
-18 -25 -12 -25 6 0 14 5 18 11 4 7 22 9 47 6 39 -5 41 8 2 15 -17 3 -20 13
-23 68 -3 64 -2 66 25 77 26 11 26 11 3 7 -18 -4 -32 2 -49 20 -20 22 -25 39
-29 105 -4 80 -4 80 22 87 42 10 115 -5 126 -26 18 -33 11 -89 -15 -130 -27
-43 -29 -50 -17 -50 5 0 17 16 28 36 l19 35 7 -68 c3 -37 14 -106 22 -153 9
-47 17 -127 18 -177 1 -89 0 -93 -28 -121 -48 -47 -165 -146 -234 -197 -36
-27 -67 -52 -70 -55 -12 -14 -55 -40 -68 -40 -14 0 -42 56 -137 274 -31 71
-83 181 -116 245 -67 130 -70 156 -22 220 28 36 122 100 223 152 35 18 59 34
53 36 -6 2 -39 -10 -72 -27 -74 -37 -78 -27 -19 56 56 80 79 104 97 104 9 0
39 -13 66 -29z m1970 -70 c14 -6 -5 -10 -60 -15 -44 -4 -111 -14 -149 -22 -75
-15 -91 -13 -54 7 48 27 221 46 263 30z m-336 -97 c17 -4 31 -10 31 -15 0 -14
-508 -415 -515 -407 -3 3 14 41 38 86 45 86 45 86 252 231 39 27 88 63 110 80
45 34 41 33 84 25z m-1119 -363 c0 -14 -120 -121 -136 -121 -20 0 -18 53 4 73
20 18 101 56 120 57 6 0 12 -4 12 -9z m780 -9 c0 -5 -30 -33 -67 -63 -213
-171 -579 -516 -602 -566 -6 -13 -11 -33 -11 -43 0 -29 -19 -24 -31 6 -13 37
-6 46 189 242 164 165 225 218 411 360 91 70 111 81 111 64z m-2698 -316 c138
-33 283 -87 596 -225 138 -61 305 -129 370 -152 l117 -40 85 -101 c84 -100
152 -186 200 -252 33 -46 85 -70 134 -61 28 6 41 3 56 -10 28 -25 25 -42 -12
-84 l-32 -36 -390 0 c-298 0 -404 -3 -446 -14 -96 -24 -214 -92 -283 -163 -25
-26 -44 -37 -54 -34 -98 38 -486 52 -653 23 -80 -14 -87 -13 -122 4 -54 27
-73 81 -103 289 -26 175 -18 358 26 575 20 101 73 273 89 289 34 34 264 30
422 -8z m1272 -142 c16 -41 6 -61 -43 -87 -48 -27 -81 -34 -81 -19 0 22 86
122 106 122 6 0 15 -7 18 -16z m1246 12 c0 -5 -150 -61 -227 -85 -118 -36 -63
-4 70 42 125 43 157 52 157 43z m270 -31 c0 -28 5 -37 31 -50 29 -15 30 -18
23 -58 -10 -56 -8 -103 12 -287 l16 -155 -32 -83 c-28 -69 -43 -92 -90 -135
-70 -65 -175 -121 -255 -137 -49 -9 -77 -8 -150 4 -49 9 -93 20 -97 24 -7 7
63 122 77 125 4 1 13 -11 21 -28 14 -30 14 -30 8 15 -3 25 -15 76 -25 115 -24
88 -24 121 0 176 17 37 43 152 79 343 6 37 11 41 62 61 30 12 100 34 155 49
55 16 111 35 125 42 37 19 40 18 40 -21z m-444 -182 c26 -35 26 -36 14 -110
-6 -41 -27 -117 -46 -168 l-35 -93 16 -67 c8 -36 12 -78 9 -93 -11 -44 -50
-115 -77 -141 l-26 -23 -103 22 c-57 12 -142 35 -191 51 -48 16 -93 29 -100
28 -14 0 83 -48 100 -49 6 0 15 -5 19 -11 7 -13 -20 -11 -251 11 -66 7 -122
14 -125 16 -2 3 17 26 43 52 52 51 39 50 142 8 36 -15 38 -15 20 -1 -42 34
-97 56 -124 50 -21 -4 -32 0 -51 20 -29 31 -30 29 90 106 153 97 284 196 364
273 62 61 94 83 160 112 44 19 85 39 90 44 13 13 32 2 62 -37z m1877 -498 c97
-157 148 -247 144 -252 -3 -2 -22 11 -44 29 -21 19 -57 48 -79 66 -23 17 -46
44 -52 59 -18 44 -52 176 -52 198 0 18 2 18 20 -5 11 -14 39 -56 63 -95z
m-1443 -165 c0 -5 -7 -10 -16 -10 -8 0 -12 5 -9 10 3 6 10 10 16 10 5 0 9 -4
9 -10z m940 -454 c0 -3 -4 -8 -10 -11 -5 -3 -10 -1 -10 4 0 6 5 11 10 11 6 0
10 -2 10 -4z m-190 -21 c22 -12 23 -14 8 -20 -10 -4 -24 -1 -33 8 -28 29 -16
35 25 12z m714 -367 c109 -72 362 -198 464 -230 39 -12 72 -27 72 -31 0 -5 -8
-6 -17 -2 -10 4 -38 11 -63 15 -43 6 -204 64 -225 80 -5 4 -39 23 -75 41 -94
47 -188 109 -245 163 -59 56 -37 47 89 -36z m576 -351 c11 -5 9 -6 -4 -4 -11
1 -21 9 -23 17 -3 10 -2 11 4 4 4 -6 15 -14 23 -17z m60 -7 c0 -5 -5 -10 -11
-10 -5 0 -7 5 -4 10 3 6 8 10 11 10 2 0 4 -4 4 -10z m120 -92 c23 -57 48 -116
55 -133 56 -125 97 -237 89 -244 -5 -4 -60 -25 -122 -46 -63 -20 -139 -48
-170 -60 -52 -22 -58 -22 -69 -7 -7 8 -13 27 -13 40 0 13 -20 91 -45 173 -25
82 -44 153 -41 158 3 4 35 25 72 47 38 22 92 67 127 105 34 37 65 68 68 68 4
1 26 -45 49 -101z m-150 76 c0 -8 -5 -12 -10 -9 -6 4 -8 11 -5 16 9 14 15 11
15 -7z m-37 -50 c-15 -23 -17 -24 -26 -8 -7 13 -5 21 8 30 27 20 37 7 18 -22z
m-3799 -426 c25 -29 46 -56 46 -60 0 -3 -26 -9 -57 -13 -32 -3 -68 -8 -80 -11
-12 -2 -25 0 -28 6 -7 11 55 130 67 130 3 0 27 -24 52 -52z"/>
<path d="M4904 2606 c-29 -29 -34 -41 -34 -79 0 -28 6 -52 18 -64 19 -22 110
-59 119 -49 4 3 -1 6 -10 6 -22 0 -22 1 9 60 32 61 27 108 -13 140 -35 28 -50
25 -89 -14z m39 -6 c-12 -5 -29 -22 -37 -37 -9 -16 -15 -21 -16 -12 0 21 37
59 58 58 13 0 12 -2 -5 -9z"/>
<path d="M6011 3940 c-9 -28 -8 -30 15 -30 24 0 30 13 18 44 -9 24 -21 19 -33
-14z"/>
<path d="M6180 3640 c0 -21 16 -26 39 -11 18 11 5 31 -20 31 -12 0 -19 -7 -19
-20z"/>
<path d="M8730 3200 c-9 -6 -10 -10 -3 -10 6 0 15 5 18 10 8 12 4 12 -15 0z"/>
<path d="M3220 3491 c0 -12 5 -21 10 -21 6 0 10 6 10 14 0 8 -4 18 -10 21 -5
3 -10 -3 -10 -14z"/>
<path d="M3208 3437 c-3 -13 -1 -32 3 -43 5 -13 8 -7 8 24 1 46 -4 55 -11 19z"/>
<path d="M3300 3405 l-25 -14 31 -1 c21 0 31 5 31 15 0 18 -5 18 -37 0z"/>
<path d="M3366 3353 c10 -16 26 -44 36 -63 13 -25 17 -28 12 -10 -9 35 -46
100 -57 100 -5 0 -1 -12 9 -27z"/>
<path d="M10430 10501 c0 -6 5 -13 10 -16 6 -3 10 1 10 9 0 9 -4 16 -10 16 -5
0 -10 -4 -10 -9z"/>
<path d="M0 10350 l0 -80 1278 0 1278 0 22 25 c12 14 22 29 22 33 0 4 14 20
30 36 17 15 35 37 40 47 10 18 -21 19 -1330 19 l-1340 0 0 -80z"/>
<path d="M4603 10150 c-58 -18 -47 -26 88 -68 152 -48 278 -121 372 -215 101
-103 217 -300 217 -369 0 -23 0 -23 -136 -19 -405 10 -935 -177 -1389 -490
-73 -50 -213 -157 -220 -168 -7 -12 -197 -109 -285 -146 -243 -103 -582 -205
-678 -205 -52 0 -59 -13 -42 -78 47 -174 213 -333 407 -389 35 -10 63 -23 63
-29 0 -6 -33 -61 -73 -120 -134 -198 -217 -364 -302 -603 -127 -355 -125 -780
4 -1056 41 -88 130 -194 181 -215 16 -7 30 -18 30 -24 0 -7 -20 -45 -45 -85
-25 -40 -45 -78 -45 -85 0 -36 125 -96 246 -117 88 -15 266 -7 318 15 22 9 41
14 43 12 2 -2 -9 -31 -26 -63 -16 -33 -42 -98 -58 -144 -26 -78 -28 -95 -28
-239 0 -147 2 -158 27 -212 32 -69 98 -142 153 -170 43 -23 215 -40 185 -19
-8 6 -25 11 -37 11 -47 0 -128 47 -178 101 -124 136 -133 339 -30 657 19 57
39 110 46 118 15 18 9 18 -32 -3 -70 -36 -380 -15 -501 34 -21 9 -37 21 -34
27 3 6 16 37 29 69 13 31 27 60 31 64 3 4 44 7 91 7 46 1 89 6 94 11 7 7 -14
10 -67 10 -64 0 -86 5 -132 27 -185 91 -293 332 -326 723 -6 76 16 253 45 365
32 119 43 156 81 255 80 213 240 489 397 685 155 195 334 380 483 502 25 20
56 46 70 57 14 11 20 20 13 21 -6 0 -18 -6 -25 -13 -7 -7 -30 -23 -51 -36 -21
-13 -43 -28 -50 -34 -6 -7 -44 -38 -83 -69 -82 -67 -275 -264 -354 -361 -53
-66 -56 -68 -90 -62 -83 16 -224 111 -318 215 -32 36 -91 141 -98 177 l-6 30
96 7 c232 16 636 187 876 371 102 78 359 234 509 310 105 52 323 142 446 183
217 73 480 122 655 122 139 0 140 -1 140 -69 -1 -31 -9 -81 -20 -111 -10 -30
-17 -56 -16 -58 2 -1 15 11 29 28 39 45 50 101 44 210 -9 169 -68 304 -196
441 -83 90 -154 146 -238 189 -35 17 -63 34 -63 37 0 9 96 -6 205 -32 124 -29
232 -74 354 -148 52 -32 96 -55 98 -53 3 2 -22 25 -54 51 -103 82 -290 162
-503 215 -96 25 -287 35 -337 20z"/>
<path d="M10740 10071 c-43 -13 -192 -92 -186 -98 3 -3 17 2 31 11 15 10 70
35 123 56 85 35 104 53 32 31z"/>
<path d="M10514 9954 c-18 -14 -18 -15 4 -4 12 6 22 13 22 15 0 8 -5 6 -26
-11z"/>
<path d="M10332 9788 c-25 -31 -57 -146 -67 -240 -6 -65 -2 -68 58 -43 20 8
42 13 49 11 7 -2 27 -7 44 -10 29 -5 32 -2 38 25 3 16 15 42 26 57 20 27 20
30 5 67 -16 36 -116 145 -134 145 -5 0 -13 -6 -19 -12z"/>
<path d="M9996 9494 c-43 -63 -44 -90 0 -175 l24 -48 39 17 c26 11 42 25 46
41 7 28 99 128 126 136 47 15 -7 48 -109 66 -32 6 -64 12 -72 14 -9 3 -29 -16
-54 -51z"/>
<path d="M6090 9110 c-21 -7 -22 -8 -5 -9 50 -3 180 -43 257 -80 186 -88 339
-197 491 -351 252 -256 364 -411 561 -775 121 -222 188 -330 283 -452 73 -94
187 -203 251 -241 43 -25 44 -26 21 -34 -21 -8 -123 2 -184 18 -40 10 13 -16
62 -31 58 -18 123 -19 158 -3 33 15 32 24 -9 45 -113 60 -313 294 -484 567
-34 54 -71 121 -84 149 -117 268 -296 525 -530 762 -126 127 -157 152 -308
253 -193 128 -400 207 -480 182z"/>
<path d="M10081 8964 c0 -11 3 -14 6 -6 3 7 2 16 -1 19 -3 4 -6 -2 -5 -13z"/>
<path d="M10131 8805 c19 -43 35 -65 55 -76 37 -19 33 -8 -15 41 -24 25 -42
41 -40 35z"/>
<path d="M10704 8656 c-170 -81 -382 -248 -574 -451 l-35 -37 37 25 c20 13 44
32 53 41 9 9 33 29 53 44 21 15 39 29 42 32 22 22 51 29 70 18 19 -12 20 -22
18 -218 l-2 -205 27 -48 c15 -26 27 -54 27 -62 0 -7 10 -17 21 -20 15 -5 18
-10 10 -15 -11 -6 23 -13 127 -24 17 -2 33 0 33 5 2 14 5 22 17 52 10 24 15
26 32 17 16 -8 22 -6 35 13 14 23 46 140 60 220 3 21 12 37 19 37 8 0 17 7 20
16 3 9 6 146 6 305 0 228 -3 289 -13 289 -7 0 -44 -15 -83 -34z m-151 -903
c-7 -2 -19 -2 -25 0 -7 3 -2 5 12 5 14 0 19 -2 13 -5z"/>
<path d="M4226 8653 c-6 -14 -5 -15 5 -6 7 7 10 15 7 18 -3 3 -9 -2 -12 -12z"/>
<path d="M10415 8640 c-3 -5 -2 -10 4 -10 5 0 13 5 16 10 3 6 2 10 -4 10 -5 0
-13 -4 -16 -10z"/>
<path d="M4186 8593 c-6 -14 -5 -15 5 -6 7 7 10 15 7 18 -3 3 -9 -2 -12 -12z"/>
<path d="M10305 8560 c4 -6 11 -8 16 -5 14 9 11 15 -7 15 -8 0 -12 -5 -9 -10z"/>
<path d="M10036 8284 c-5 -14 -4 -15 9 -4 17 14 19 20 6 20 -5 0 -12 -7 -15
-16z"/>
<path d="M4372 8123 c-117 -330 -101 -725 39 -939 72 -111 202 -211 305 -234
54 -12 48 1 -12 26 -126 51 -229 148 -296 280 -75 149 -83 188 -82 424 0 211
6 257 58 440 20 73 14 74 -12 3z"/>
<path d="M7628 7233 c74 -90 217 -196 350 -260 78 -37 114 -40 40 -2 -66 34
-228 142 -273 182 -33 30 -37 36 -20 37 13 1 7 6 -17 14 -20 7 -56 28 -80 47
l-43 34 43 -52z"/>
<path d="M5330 6836 c0 -31 6 -34 13 -6 3 11 1 23 -4 26 -5 3 -9 -6 -9 -20z"/>
<path d="M5864 6849 c-117 -9 -349 -54 -380 -74 -13 -8 -30 -41 -44 -87 -42
-134 -27 -315 36 -441 31 -59 102 -133 149 -153 40 -16 85 -19 85 -4 0 6 -10
10 -22 10 -55 0 -136 83 -160 162 -10 34 -9 46 9 89 21 49 20 56 -6 40 -19
-12 -43 13 -40 42 2 12 -2 32 -9 44 -24 44 -3 131 36 152 46 25 112 -4 112
-49 0 -10 6 -23 14 -27 23 -13 29 -50 10 -57 -9 -4 -14 -9 -11 -13 10 -10 37
18 37 38 0 36 19 19 34 -29 19 -66 52 -128 71 -135 8 -4 27 -2 41 3 14 6 40
10 58 10 41 0 52 12 65 71 8 34 7 58 -4 99 -15 57 -6 89 14 51 13 -24 31 -28
31 -7 0 19 83 32 115 18 22 -10 55 -62 55 -87 0 -7 -14 -18 -30 -25 -24 -10
-33 -10 -45 0 -13 11 -14 10 -9 -4 3 -9 9 -16 13 -16 12 0 51 -76 51 -98 0
-12 5 -24 10 -27 24 -15 7 -51 -45 -101 -30 -29 -55 -56 -55 -59 0 -10 75 33
97 57 12 12 34 50 50 83 23 51 28 73 27 145 0 55 -6 104 -18 140 -25 75 -81
178 -119 218 -35 36 -35 36 -223 21z"/>
<path d="M5323 6790 c5 -21 47 -26 47 -6 0 18 -16 21 -26 5 -4 -8 -9 -7 -16 2
-8 11 -9 11 -5 -1z"/>
<path d="M4923 6293 c9 -2 23 -2 30 0 6 3 -1 5 -18 5 -16 0 -22 -2 -12 -5z"/>
<path d="M8629 6211 c-9 -15 -41 -40 -70 -55 -53 -28 -53 -28 -17 -23 47 7 84
34 98 71 13 38 9 42 -11 7z"/>
<path d="M5908 6130 c-32 -10 -86 -24 -120 -31 -34 -7 -57 -14 -50 -17 26 -8
10 -22 -25 -23 -21 0 -47 -4 -58 -9 -18 -7 -18 -9 10 -20 64 -26 287 33 360
95 l20 17 -20 -7 c-11 -4 -31 -10 -45 -13 -22 -5 -24 -3 -11 11 17 21 11 21
-61 -3z"/>
<path d="M8384 5920 c-1 -71 1 -79 9 -50 5 19 11 41 13 48 5 19 44 5 69 -23
30 -35 85 -58 85 -37 0 5 -16 16 -36 25 -20 10 -38 27 -41 37 -4 16 -14 20
-44 20 -35 0 -39 3 -47 33 -6 24 -8 12 -8 -53z"/>
<path d="M5390 5495 c-100 -35 -97 -45 6 -20 70 16 114 34 114 47 0 13 -18 9
-120 -27z"/>
<path d="M4840 5305 c-14 -8 -33 -14 -42 -15 -10 0 -18 -4 -18 -10 0 -16 33
-11 68 10 48 29 41 43 -8 15z"/>
<path d="M6328 5153 c7 -3 16 -2 19 1 4 3 -2 6 -13 5 -11 0 -14 -3 -6 -6z"/>
<path d="M6281 5136 c-22 -27 20 -76 65 -76 11 0 5 8 -17 23 -23 16 -33 30
-32 45 3 26 0 27 -16 8z"/>
<path d="M5085 4965 c-69 -11 -175 -42 -152 -44 4 -1 61 8 125 19 64 10 146
23 182 28 l65 9 -70 1 c-38 0 -106 -6 -150 -13z"/>
<path d="M8379 4476 c-65 -36 -139 -94 -139 -107 0 -6 7 -6 18 -1 9 5 52 17
96 28 86 20 106 40 90 87 l-9 24 -56 -31z"/>
<path d="M7710 4264 c-102 -69 -136 -96 -136 -109 0 -11 131 -65 158 -65 9 0
68 34 130 76 62 42 130 85 151 96 22 11 36 22 33 26 -4 3 -48 9 -99 14 -50 4
-106 10 -122 13 -25 6 -44 -3 -115 -51z"/>
<path d="M1300 4091 c-30 -10 -64 -22 -75 -28 -11 -6 -65 -26 -120 -43 -55
-18 -120 -42 -145 -54 -40 -19 -45 -25 -42 -51 2 -21 -6 -41 -25 -65 -40 -51
-106 -112 -144 -135 -41 -25 -40 -15 -27 -340 6 -126 9 -246 9 -265 -2 -33 3
-93 30 -390 13 -145 36 -334 51 -425 6 -38 12 -81 13 -95 3 -27 24 -150 54
-320 34 -189 89 -443 122 -565 17 -66 35 -138 40 -160 10 -54 47 -185 59 -210
5 -11 12 -35 15 -54 6 -30 136 -434 152 -471 3 -8 7 -17 8 -20 1 -3 7 -18 13
-33 7 -16 12 -35 12 -43 0 -8 4 -12 10 -9 5 3 8 0 5 -7 -5 -12 13 -64 81 -235
l29 -73 195 0 c181 0 196 1 205 19 87 165 86 163 54 236 -21 47 -21 49 -3 62
10 7 42 13 71 13 51 0 53 1 72 39 l20 38 -52 7 c-29 3 -78 6 -109 6 -34 0 -60
5 -65 13 -4 6 -19 46 -34 87 -14 41 -29 82 -32 90 -12 28 -57 173 -57 182 0 6
-6 24 -14 41 -25 58 -55 162 -48 169 9 9 57 16 119 17 41 1 51 4 49 17 -1 8
-9 20 -17 25 -10 6 -6 9 16 10 41 2 -87 21 -153 23 -57 1 -57 1 -76 96 -3 14
-13 54 -23 89 -16 57 -16 65 -3 73 14 9 12 17 -12 67 -16 31 -39 101 -52 156
-50 212 -66 284 -66 295 0 7 -20 30 -44 53 -51 49 -92 149 -127 312 -35 161
-32 465 8 640 8 38 19 75 23 80 4 6 15 33 23 60 8 28 30 84 50 125 l35 75 11
345 c6 190 14 391 18 448 l6 102 -29 -1 c-16 0 -54 -8 -84 -18z"/>
<path d="M6515 3183 c-18 -26 -17 -27 3 -41 20 -13 22 -24 22 -101 0 -81 3
-93 39 -168 21 -44 46 -83 56 -87 9 -3 50 -6 91 -6 107 0 132 -16 325 -206
101 -99 137 -121 154 -94 6 10 -20 185 -31 215 -3 7 -56 48 -117 91 -62 42
-114 80 -117 83 -3 3 -32 26 -64 51 -60 45 -202 169 -286 247 -25 24 -48 43
-51 43 -4 0 -15 -12 -24 -27z"/>
<path d="M0 3017 c0 -35 24 -71 154 -236 83 -106 86 -113 91 -204 3 -65 2 -74
-5 -42 -5 22 -9 54 -9 71 -1 24 -17 49 -74 111 -39 44 -91 103 -114 133 l-43
53 0 -474 0 -473 60 59 c113 112 171 209 207 348 12 48 14 87 9 175 -4 61 -5
112 -2 112 2 0 28 -24 56 -52 60 -60 60 -61 -116 173 -72 96 -145 195 -162
221 -42 62 -52 67 -52 25z"/>
<path d="M408 2504 c28 -54 45 -169 38 -261 -18 -255 -126 -385 -418 -502 -16
-6 -28 -17 -28 -26 0 -14 4 -13 37 1 21 9 49 19 63 24 83 25 237 133 281 197
18 26 45 83 61 127 23 68 28 97 28 181 0 110 -27 237 -56 264 -15 15 -16 14
-6 -5z"/>
<path d="M8150 1174 c0 -5 -5 -110 -10 -234 -10 -245 -25 -723 -25 -809 l0
-54 85 -3 c47 -2 186 -8 310 -14 124 -5 371 -15 550 -20 179 -6 363 -13 410
-16 267 -15 610 -24 948 -24 l382 0 0 175 c0 133 -3 175 -12 176 -7 1 -30 1
-51 -1 -66 -4 -67 1 -60 194 3 94 10 179 15 188 10 20 49 24 79 7 17 -9 20
-19 18 -65 -2 -29 0 -57 4 -61 4 -3 7 102 7 234 l0 241 -217 6 c-120 4 -292
11 -383 16 -91 5 -286 12 -435 15 -148 3 -364 11 -480 16 -227 11 -571 24
-917 35 -129 4 -218 3 -218 -2z m638 -413 l-3 -56 47 -1 c81 -1 118 -52 118
-163 0 -96 -11 -121 -53 -121 -49 0 -57 14 -57 98 l0 73 -27 -3 c-27 -3 -28
-5 -31 -72 -4 -82 -17 -99 -72 -89 -41 7 -49 17 -51 58 0 28 -1 28 -11 9 -5
-12 -27 -31 -48 -43 -63 -35 -151 -26 -200 20 -39 37 -38 67 1 102 33 29 36
29 81 -15 23 -22 58 -23 58 -2 0 9 -6 14 -12 12 -7 -3 -17 -1 -23 4 -5 5 -25
17 -44 26 -69 34 -92 98 -60 163 35 70 127 87 206 38 38 -23 44 -58 16 -87
-26 -26 -26 -55 -1 -49 14 4 18 2 14 -9 -3 -8 -2 -14 3 -14 5 0 12 -15 17 -32
6 -25 9 -4 14 84 3 65 10 122 15 127 15 14 57 18 83 7 21 -9 23 -15 20 -65z
m751 30 c18 -12 11 -352 -8 -375 -12 -14 -50 -15 -174 -7 -10 0 -34 17 -53 37
-30 32 -34 43 -34 89 0 43 5 59 31 91 35 45 60 56 109 52 l35 -3 5 50 c3 28 9
56 13 63 9 14 55 16 76 3z m-369 -106 c87 -2 80 8 80 -122 0 -94 -3 -120 -17
-135 -16 -18 -63 -25 -77 -11 -3 4 -29 6 -57 4 -44 -2 -55 1 -81 26 -46 44
-60 77 -52 128 3 25 17 57 30 72 28 32 80 54 109 45 11 -4 40 -7 65 -7z m607
-32 c68 -32 93 -119 55 -192 -38 -75 -125 -99 -195 -55 -106 69 -99 207 12
256 29 12 93 8 128 -9z m187 -37 c18 -36 21 -38 30 -21 6 10 21 29 33 42 21
22 25 23 51 9 18 -9 33 -28 39 -48 l10 -33 18 37 c27 54 81 63 105 18 11 -20
-15 -90 -70 -195 -34 -63 -67 -72 -99 -27 -12 17 -21 35 -21 41 0 6 -4 11 -10
11 -5 0 -10 -6 -10 -14 0 -8 -11 -28 -24 -43 -24 -27 -26 -27 -53 -13 -18 10
-34 31 -44 60 -26 72 -30 84 -38 100 -21 40 -23 81 -5 101 29 32 66 21 88 -25z
m625 -295 c60 -7 84 -28 65 -59 -10 -15 -30 -17 -175 -17 -203 0 -221 3 -233
37 -18 51 -1 56 152 51 75 -3 161 -8 191 -12z"/>
<path d="M8507 723 c-12 -12 -7 -31 10 -37 24 -9 39 9 23 29 -14 16 -23 19
-33 8z"/>
<path d="M8560 686 c0 -2 7 -6 15 -10 8 -3 15 -1 15 4 0 6 -7 10 -15 10 -8 0
-15 -2 -15 -4z"/>
<path d="M9383 563 c-21 -8 -15 -41 9 -49 27 -8 54 22 37 43 -12 13 -25 15
-46 6z"/>
<path d="M9086 574 c-18 -18 -6 -54 19 -54 25 0 37 36 19 54 -8 9 -17 16 -19
16 -2 0 -11 -7 -19 -16z"/>
<path d="M9688 559 c-37 -21 -9 -77 32 -64 25 8 28 60 4 69 -19 7 -15 8 -36
-5z"/>
<path d="M2195 1053 c61 -6 61 -18 0 -18 -30 0 -51 -2 -47 -6 6 -6 152 -18
152 -13 0 1 -15 12 -34 23 -21 13 -48 20 -72 19 l-39 -1 40 -4z"/>
<path d="M10786 494 c-3 -9 -2 -23 4 -32 7 -14 9 -10 10 16 0 35 -5 41 -14 16z"/>
</g>
</svg>
